<mxfile host="app.diagrams.net" agent="Mozilla/5.0 (Windows NT 10.0; Win64; x64) AppleWebKit/537.36 (KHTML, like Gecko) Chrome/127.0.0.0 Safari/537.36 Edg/127.0.0.0" version="24.8.4">
  <diagram name="第 1 页" id="-fspIqprw4youLXXqIrA">
    <mxGraphModel dx="1091" dy="1797" grid="1" gridSize="10" guides="1" tooltips="1" connect="1" arrows="1" fold="1" page="1" pageScale="1" pageWidth="827" pageHeight="1169" math="0" shadow="0">
      <root>
        <mxCell id="0" />
        <mxCell id="1" parent="0" />
        <mxCell id="YnU4DgS81yS771I68iCx-394" value="" style="group" vertex="1" connectable="0" parent="1">
          <mxGeometry x="168" y="-1120" width="490" height="740" as="geometry" />
        </mxCell>
        <mxCell id="YnU4DgS81yS771I68iCx-381" value="" style="group" vertex="1" connectable="0" parent="YnU4DgS81yS771I68iCx-394">
          <mxGeometry width="490" height="584" as="geometry" />
        </mxCell>
        <mxCell id="YnU4DgS81yS771I68iCx-380" value="" style="endArrow=classic;startArrow=classic;html=1;rounded=0;strokeColor=#A8201A;fontColor=#143642;fillColor=#FAE5C7;" edge="1" parent="YnU4DgS81yS771I68iCx-381">
          <mxGeometry width="50" height="50" relative="1" as="geometry">
            <mxPoint x="244.41000000000003" y="460" as="sourcePoint" />
            <mxPoint x="244.41000000000003" y="430" as="targetPoint" />
          </mxGeometry>
        </mxCell>
        <mxCell id="YnU4DgS81yS771I68iCx-43" value="" style="group" vertex="1" connectable="0" parent="YnU4DgS81yS771I68iCx-381">
          <mxGeometry width="490" height="120" as="geometry" />
        </mxCell>
        <mxCell id="YnU4DgS81yS771I68iCx-12" value="登录注册" style="rounded=0;whiteSpace=wrap;html=1;strokeColor=#0F8B8D;fontColor=#143642;fillColor=#FAE5C7;" vertex="1" parent="YnU4DgS81yS771I68iCx-43">
          <mxGeometry x="40" y="30" width="90" height="50" as="geometry" />
        </mxCell>
        <mxCell id="YnU4DgS81yS771I68iCx-13" value="房间预订" style="rounded=0;whiteSpace=wrap;html=1;strokeColor=#0F8B8D;fontColor=#143642;fillColor=#FAE5C7;" vertex="1" parent="YnU4DgS81yS771I68iCx-43">
          <mxGeometry x="140" y="30" width="90" height="50" as="geometry" />
        </mxCell>
        <mxCell id="YnU4DgS81yS771I68iCx-14" value="订单管理" style="rounded=0;whiteSpace=wrap;html=1;strokeColor=#0F8B8D;fontColor=#143642;fillColor=#FAE5C7;" vertex="1" parent="YnU4DgS81yS771I68iCx-43">
          <mxGeometry x="240" y="30" width="90" height="50" as="geometry" />
        </mxCell>
        <mxCell id="YnU4DgS81yS771I68iCx-15" value="消息中心" style="rounded=0;whiteSpace=wrap;html=1;strokeColor=#0F8B8D;fontColor=#143642;fillColor=#FAE5C7;" vertex="1" parent="YnU4DgS81yS771I68iCx-43">
          <mxGeometry x="340" y="30" width="90" height="50" as="geometry" />
        </mxCell>
        <UserObject label="Vue.js 3.0 + Element Plus + Vuex + Vue Router + Axios" link="Vue.js 3.0 + Element Plus + Vuex + Vue Router + Axios" id="YnU4DgS81yS771I68iCx-16">
          <mxCell style="text;whiteSpace=wrap;fontColor=#143642;" vertex="1" parent="YnU4DgS81yS771I68iCx-43">
            <mxGeometry x="69" y="80" width="330" height="40" as="geometry" />
          </mxCell>
        </UserObject>
        <mxCell id="YnU4DgS81yS771I68iCx-17" value="" style="endArrow=none;dashed=1;html=1;dashPattern=1 3;strokeWidth=2;rounded=0;strokeColor=#A8201A;fontColor=#143642;fillColor=#FAE5C7;" edge="1" parent="YnU4DgS81yS771I68iCx-43">
          <mxGeometry width="50" height="50" relative="1" as="geometry">
            <mxPoint y="110" as="sourcePoint" />
            <mxPoint as="targetPoint" />
          </mxGeometry>
        </mxCell>
        <mxCell id="YnU4DgS81yS771I68iCx-20" value="" style="endArrow=none;dashed=1;html=1;dashPattern=1 3;strokeWidth=2;rounded=0;strokeColor=#A8201A;fontColor=#143642;fillColor=#FAE5C7;" edge="1" parent="YnU4DgS81yS771I68iCx-43">
          <mxGeometry width="50" height="50" relative="1" as="geometry">
            <mxPoint as="sourcePoint" />
            <mxPoint x="490" as="targetPoint" />
          </mxGeometry>
        </mxCell>
        <mxCell id="YnU4DgS81yS771I68iCx-50" value="表现层" style="edgeLabel;html=1;align=center;verticalAlign=middle;resizable=0;points=[];strokeColor=#0F8B8D;fontColor=#143642;fillColor=#FAE5C7;" vertex="1" connectable="0" parent="YnU4DgS81yS771I68iCx-20">
          <mxGeometry x="0.0423" y="2" relative="1" as="geometry">
            <mxPoint x="-10" y="2" as="offset" />
          </mxGeometry>
        </mxCell>
        <mxCell id="YnU4DgS81yS771I68iCx-21" value="" style="endArrow=none;dashed=1;html=1;dashPattern=1 3;strokeWidth=2;rounded=0;strokeColor=#A8201A;fontColor=#143642;fillColor=#FAE5C7;" edge="1" parent="YnU4DgS81yS771I68iCx-43">
          <mxGeometry width="50" height="50" relative="1" as="geometry">
            <mxPoint x="490" y="120" as="sourcePoint" />
            <mxPoint y="120" as="targetPoint" />
          </mxGeometry>
        </mxCell>
        <mxCell id="YnU4DgS81yS771I68iCx-22" value="" style="endArrow=none;dashed=1;html=1;dashPattern=1 3;strokeWidth=2;rounded=0;strokeColor=#A8201A;fontColor=#143642;fillColor=#FAE5C7;" edge="1" parent="YnU4DgS81yS771I68iCx-43">
          <mxGeometry width="50" height="50" relative="1" as="geometry">
            <mxPoint x="490" y="120" as="sourcePoint" />
            <mxPoint x="490" as="targetPoint" />
          </mxGeometry>
        </mxCell>
        <mxCell id="YnU4DgS81yS771I68iCx-44" value="" style="group" vertex="1" connectable="0" parent="YnU4DgS81yS771I68iCx-381">
          <mxGeometry y="155" width="490" height="120" as="geometry" />
        </mxCell>
        <mxCell id="YnU4DgS81yS771I68iCx-23" value="&lt;font style=&quot;font-size: 18px;&quot;&gt;Spring Security&lt;/font&gt;" style="rounded=0;whiteSpace=wrap;html=1;strokeColor=#0F8B8D;fontColor=#143642;fillColor=#FAE5C7;" vertex="1" parent="YnU4DgS81yS771I68iCx-44">
          <mxGeometry x="62" y="30" width="152" height="50" as="geometry" />
        </mxCell>
        <mxCell id="YnU4DgS81yS771I68iCx-24" value="&lt;font style=&quot;font-size: 18px;&quot;&gt;JWT Token&lt;/font&gt;" style="rounded=0;whiteSpace=wrap;html=1;strokeColor=#0F8B8D;fontColor=#143642;fillColor=#FAE5C7;" vertex="1" parent="YnU4DgS81yS771I68iCx-44">
          <mxGeometry x="302" y="30" width="150" height="50" as="geometry" />
        </mxCell>
        <UserObject label="          Spring Boot Controller   " link="Vue.js 3.0 + Element Plus + Vuex + Vue Router + Axios" id="YnU4DgS81yS771I68iCx-27">
          <mxCell style="text;whiteSpace=wrap;fontColor=#143642;" vertex="1" parent="YnU4DgS81yS771I68iCx-44">
            <mxGeometry x="152" y="90" width="203" height="30" as="geometry" />
          </mxCell>
        </UserObject>
        <mxCell id="YnU4DgS81yS771I68iCx-28" value="" style="endArrow=none;dashed=1;html=1;dashPattern=1 3;strokeWidth=2;rounded=0;strokeColor=#A8201A;fontColor=#143642;fillColor=#FAE5C7;" edge="1" parent="YnU4DgS81yS771I68iCx-44">
          <mxGeometry width="50" height="50" relative="1" as="geometry">
            <mxPoint y="110" as="sourcePoint" />
            <mxPoint as="targetPoint" />
          </mxGeometry>
        </mxCell>
        <mxCell id="YnU4DgS81yS771I68iCx-29" value="" style="endArrow=none;dashed=1;html=1;dashPattern=1 3;strokeWidth=2;rounded=0;strokeColor=#A8201A;fontColor=#143642;fillColor=#FAE5C7;" edge="1" parent="YnU4DgS81yS771I68iCx-44">
          <mxGeometry width="50" height="50" relative="1" as="geometry">
            <mxPoint as="sourcePoint" />
            <mxPoint x="490" as="targetPoint" />
          </mxGeometry>
        </mxCell>
        <mxCell id="YnU4DgS81yS771I68iCx-51" value="应用层" style="edgeLabel;html=1;align=center;verticalAlign=middle;resizable=0;points=[];strokeColor=#0F8B8D;fontColor=#143642;fillColor=#FAE5C7;" vertex="1" connectable="0" parent="YnU4DgS81yS771I68iCx-29">
          <mxGeometry x="0.0471" y="-1" relative="1" as="geometry">
            <mxPoint x="-13" as="offset" />
          </mxGeometry>
        </mxCell>
        <mxCell id="YnU4DgS81yS771I68iCx-30" value="" style="endArrow=none;dashed=1;html=1;dashPattern=1 3;strokeWidth=2;rounded=0;strokeColor=#A8201A;fontColor=#143642;fillColor=#FAE5C7;" edge="1" parent="YnU4DgS81yS771I68iCx-44">
          <mxGeometry width="50" height="50" relative="1" as="geometry">
            <mxPoint x="490" y="120" as="sourcePoint" />
            <mxPoint y="120" as="targetPoint" />
          </mxGeometry>
        </mxCell>
        <mxCell id="YnU4DgS81yS771I68iCx-31" value="" style="endArrow=none;dashed=1;html=1;dashPattern=1 3;strokeWidth=2;rounded=0;strokeColor=#A8201A;fontColor=#143642;fillColor=#FAE5C7;" edge="1" parent="YnU4DgS81yS771I68iCx-44">
          <mxGeometry width="50" height="50" relative="1" as="geometry">
            <mxPoint x="490" y="120" as="sourcePoint" />
            <mxPoint x="490" as="targetPoint" />
          </mxGeometry>
        </mxCell>
        <mxCell id="YnU4DgS81yS771I68iCx-45" value="" style="endArrow=classic;startArrow=classic;html=1;rounded=0;strokeColor=#A8201A;fontColor=#143642;fillColor=#FAE5C7;" edge="1" parent="YnU4DgS81yS771I68iCx-381">
          <mxGeometry width="50" height="50" relative="1" as="geometry">
            <mxPoint x="244" y="150" as="sourcePoint" />
            <mxPoint x="244" y="120" as="targetPoint" />
          </mxGeometry>
        </mxCell>
        <mxCell id="YnU4DgS81yS771I68iCx-46" value="HTTP/HTTPS" style="edgeLabel;html=1;align=center;verticalAlign=middle;resizable=0;points=[];strokeColor=#0F8B8D;fontColor=#143642;fillColor=#FAE5C7;" vertex="1" connectable="0" parent="YnU4DgS81yS771I68iCx-45">
          <mxGeometry x="0.2431" y="-1" relative="1" as="geometry">
            <mxPoint x="44" y="5" as="offset" />
          </mxGeometry>
        </mxCell>
        <mxCell id="YnU4DgS81yS771I68iCx-52" value="" style="group" vertex="1" connectable="0" parent="YnU4DgS81yS771I68iCx-381">
          <mxGeometry y="310" width="490" height="120" as="geometry" />
        </mxCell>
        <UserObject label="Service" link="Vue.js 3.0 + Element Plus + Vuex + Vue Router + Axios" id="YnU4DgS81yS771I68iCx-55">
          <mxCell style="text;whiteSpace=wrap;fontColor=#143642;" vertex="1" parent="YnU4DgS81yS771I68iCx-52">
            <mxGeometry x="225" y="90" width="56" height="30" as="geometry" />
          </mxCell>
        </UserObject>
        <mxCell id="YnU4DgS81yS771I68iCx-56" value="" style="endArrow=none;dashed=1;html=1;dashPattern=1 3;strokeWidth=2;rounded=0;strokeColor=#A8201A;fontColor=#143642;fillColor=#FAE5C7;" edge="1" parent="YnU4DgS81yS771I68iCx-52">
          <mxGeometry width="50" height="50" relative="1" as="geometry">
            <mxPoint y="110" as="sourcePoint" />
            <mxPoint as="targetPoint" />
          </mxGeometry>
        </mxCell>
        <mxCell id="YnU4DgS81yS771I68iCx-57" value="" style="endArrow=none;dashed=1;html=1;dashPattern=1 3;strokeWidth=2;rounded=0;strokeColor=#A8201A;fontColor=#143642;fillColor=#FAE5C7;" edge="1" parent="YnU4DgS81yS771I68iCx-52">
          <mxGeometry width="50" height="50" relative="1" as="geometry">
            <mxPoint as="sourcePoint" />
            <mxPoint x="490" as="targetPoint" />
          </mxGeometry>
        </mxCell>
        <mxCell id="YnU4DgS81yS771I68iCx-58" value="业务层" style="edgeLabel;html=1;align=center;verticalAlign=middle;resizable=0;points=[];strokeColor=#0F8B8D;fontColor=#143642;fillColor=#FAE5C7;" vertex="1" connectable="0" parent="YnU4DgS81yS771I68iCx-57">
          <mxGeometry x="0.0471" y="-1" relative="1" as="geometry">
            <mxPoint x="-7" as="offset" />
          </mxGeometry>
        </mxCell>
        <mxCell id="YnU4DgS81yS771I68iCx-59" value="" style="endArrow=none;dashed=1;html=1;dashPattern=1 3;strokeWidth=2;rounded=0;strokeColor=#A8201A;fontColor=#143642;fillColor=#FAE5C7;" edge="1" parent="YnU4DgS81yS771I68iCx-52">
          <mxGeometry width="50" height="50" relative="1" as="geometry">
            <mxPoint x="490" y="120" as="sourcePoint" />
            <mxPoint y="120" as="targetPoint" />
          </mxGeometry>
        </mxCell>
        <mxCell id="YnU4DgS81yS771I68iCx-60" value="" style="endArrow=none;dashed=1;html=1;dashPattern=1 3;strokeWidth=2;rounded=0;strokeColor=#A8201A;fontColor=#143642;fillColor=#FAE5C7;" edge="1" parent="YnU4DgS81yS771I68iCx-52">
          <mxGeometry width="50" height="50" relative="1" as="geometry">
            <mxPoint x="490" y="120" as="sourcePoint" />
            <mxPoint x="490" as="targetPoint" />
          </mxGeometry>
        </mxCell>
        <mxCell id="YnU4DgS81yS771I68iCx-67" value="IMessageService" style="rounded=0;whiteSpace=wrap;html=1;strokeColor=#0F8B8D;fontColor=#143642;fillColor=#FAE5C7;" vertex="1" parent="YnU4DgS81yS771I68iCx-52">
          <mxGeometry x="350.5" y="30" width="99.5" height="50" as="geometry" />
        </mxCell>
        <mxCell id="YnU4DgS81yS771I68iCx-66" value="IOrderService" style="rounded=0;whiteSpace=wrap;html=1;strokeColor=#0F8B8D;fontColor=#143642;fillColor=#FAE5C7;" vertex="1" parent="YnU4DgS81yS771I68iCx-52">
          <mxGeometry x="250.5" y="30" width="90" height="50" as="geometry" />
        </mxCell>
        <mxCell id="YnU4DgS81yS771I68iCx-65" value="IRoomService" style="rounded=0;whiteSpace=wrap;html=1;strokeColor=#0F8B8D;fontColor=#143642;fillColor=#FAE5C7;" vertex="1" parent="YnU4DgS81yS771I68iCx-52">
          <mxGeometry x="150.5" y="30" width="90" height="50" as="geometry" />
        </mxCell>
        <mxCell id="YnU4DgS81yS771I68iCx-64" value="IUserService│" style="rounded=0;whiteSpace=wrap;html=1;strokeColor=#0F8B8D;fontColor=#143642;fillColor=#FAE5C7;" vertex="1" parent="YnU4DgS81yS771I68iCx-52">
          <mxGeometry x="50.5" y="30" width="90" height="50" as="geometry" />
        </mxCell>
        <mxCell id="YnU4DgS81yS771I68iCx-62" value="" style="endArrow=classic;startArrow=classic;html=1;rounded=0;strokeColor=#A8201A;fontColor=#143642;fillColor=#FAE5C7;" edge="1" parent="YnU4DgS81yS771I68iCx-381">
          <mxGeometry width="50" height="50" relative="1" as="geometry">
            <mxPoint x="244.41000000000003" y="305" as="sourcePoint" />
            <mxPoint x="244.41000000000003" y="275" as="targetPoint" />
          </mxGeometry>
        </mxCell>
        <mxCell id="YnU4DgS81yS771I68iCx-63" value="" style="edgeLabel;html=1;align=center;verticalAlign=middle;resizable=0;points=[];strokeColor=#0F8B8D;fontColor=#143642;fillColor=#FAE5C7;" vertex="1" connectable="0" parent="YnU4DgS81yS771I68iCx-62">
          <mxGeometry x="0.2431" y="-1" relative="1" as="geometry">
            <mxPoint x="44" y="5" as="offset" />
          </mxGeometry>
        </mxCell>
        <mxCell id="YnU4DgS81yS771I68iCx-72" value="" style="group" vertex="1" connectable="0" parent="YnU4DgS81yS771I68iCx-381">
          <mxGeometry y="464" width="490" height="120" as="geometry" />
        </mxCell>
        <UserObject label="  MyBatis-Plus     " link="Vue.js 3.0 + Element Plus + Vuex + Vue Router + Axios" id="YnU4DgS81yS771I68iCx-73">
          <mxCell style="text;whiteSpace=wrap;fontColor=#143642;" vertex="1" parent="YnU4DgS81yS771I68iCx-72">
            <mxGeometry x="200" y="90" width="106" height="30" as="geometry" />
          </mxCell>
        </UserObject>
        <mxCell id="YnU4DgS81yS771I68iCx-74" value="" style="endArrow=none;dashed=1;html=1;dashPattern=1 3;strokeWidth=2;rounded=0;strokeColor=#A8201A;fontColor=#143642;fillColor=#FAE5C7;" edge="1" parent="YnU4DgS81yS771I68iCx-72">
          <mxGeometry width="50" height="50" relative="1" as="geometry">
            <mxPoint y="110" as="sourcePoint" />
            <mxPoint as="targetPoint" />
          </mxGeometry>
        </mxCell>
        <mxCell id="YnU4DgS81yS771I68iCx-75" value="" style="endArrow=none;dashed=1;html=1;dashPattern=1 3;strokeWidth=2;rounded=0;strokeColor=#A8201A;fontColor=#143642;fillColor=#FAE5C7;" edge="1" parent="YnU4DgS81yS771I68iCx-72">
          <mxGeometry width="50" height="50" relative="1" as="geometry">
            <mxPoint y="2" as="sourcePoint" />
            <mxPoint x="490" y="2" as="targetPoint" />
          </mxGeometry>
        </mxCell>
        <mxCell id="YnU4DgS81yS771I68iCx-84" value="数据持久层" style="edgeLabel;html=1;align=center;verticalAlign=middle;resizable=0;points=[];strokeColor=#0F8B8D;fontColor=#143642;fillColor=#FAE5C7;" vertex="1" connectable="0" parent="YnU4DgS81yS771I68iCx-75">
          <mxGeometry x="0.0663" relative="1" as="geometry">
            <mxPoint x="-15" as="offset" />
          </mxGeometry>
        </mxCell>
        <mxCell id="YnU4DgS81yS771I68iCx-77" value="" style="endArrow=none;dashed=1;html=1;dashPattern=1 3;strokeWidth=2;rounded=0;strokeColor=#A8201A;fontColor=#143642;fillColor=#FAE5C7;" edge="1" parent="YnU4DgS81yS771I68iCx-72">
          <mxGeometry width="50" height="50" relative="1" as="geometry">
            <mxPoint x="490" y="120" as="sourcePoint" />
            <mxPoint y="120" as="targetPoint" />
          </mxGeometry>
        </mxCell>
        <mxCell id="YnU4DgS81yS771I68iCx-78" value="" style="endArrow=none;dashed=1;html=1;dashPattern=1 3;strokeWidth=2;rounded=0;strokeColor=#A8201A;fontColor=#143642;fillColor=#FAE5C7;" edge="1" parent="YnU4DgS81yS771I68iCx-72">
          <mxGeometry width="50" height="50" relative="1" as="geometry">
            <mxPoint x="490" y="120" as="sourcePoint" />
            <mxPoint x="490" as="targetPoint" />
          </mxGeometry>
        </mxCell>
        <mxCell id="YnU4DgS81yS771I68iCx-79" value="MessageMapper" style="rounded=0;whiteSpace=wrap;html=1;strokeColor=#0F8B8D;fontColor=#143642;fillColor=#FAE5C7;" vertex="1" parent="YnU4DgS81yS771I68iCx-72">
          <mxGeometry x="350.5" y="30" width="99.5" height="50" as="geometry" />
        </mxCell>
        <mxCell id="YnU4DgS81yS771I68iCx-80" value="OrderMapper" style="rounded=0;whiteSpace=wrap;html=1;strokeColor=#0F8B8D;fontColor=#143642;fillColor=#FAE5C7;" vertex="1" parent="YnU4DgS81yS771I68iCx-72">
          <mxGeometry x="250.5" y="30" width="90" height="50" as="geometry" />
        </mxCell>
        <mxCell id="YnU4DgS81yS771I68iCx-81" value="RoomMapper" style="rounded=0;whiteSpace=wrap;html=1;strokeColor=#0F8B8D;fontColor=#143642;fillColor=#FAE5C7;" vertex="1" parent="YnU4DgS81yS771I68iCx-72">
          <mxGeometry x="150.5" y="30" width="89.5" height="50" as="geometry" />
        </mxCell>
        <mxCell id="YnU4DgS81yS771I68iCx-82" value="UserMapper" style="rounded=0;whiteSpace=wrap;html=1;strokeColor=#0F8B8D;fontColor=#143642;fillColor=#FAE5C7;" vertex="1" parent="YnU4DgS81yS771I68iCx-72">
          <mxGeometry x="50.5" y="30" width="90" height="50" as="geometry" />
        </mxCell>
        <mxCell id="YnU4DgS81yS771I68iCx-382" value="" style="group" vertex="1" connectable="0" parent="YnU4DgS81yS771I68iCx-394">
          <mxGeometry y="620" width="490" height="120" as="geometry" />
        </mxCell>
        <UserObject label="DB&#xa;" link="Vue.js 3.0 + Element Plus + Vuex + Vue Router + Axios" id="YnU4DgS81yS771I68iCx-383">
          <mxCell style="text;whiteSpace=wrap;fontColor=#143642;" vertex="1" parent="YnU4DgS81yS771I68iCx-382">
            <mxGeometry x="232" y="90" width="50" height="30" as="geometry" />
          </mxCell>
        </UserObject>
        <mxCell id="YnU4DgS81yS771I68iCx-384" value="" style="endArrow=none;dashed=1;html=1;dashPattern=1 3;strokeWidth=2;rounded=0;strokeColor=#A8201A;fontColor=#143642;fillColor=#FAE5C7;" edge="1" parent="YnU4DgS81yS771I68iCx-382">
          <mxGeometry width="50" height="50" relative="1" as="geometry">
            <mxPoint y="110" as="sourcePoint" />
            <mxPoint as="targetPoint" />
          </mxGeometry>
        </mxCell>
        <mxCell id="YnU4DgS81yS771I68iCx-385" value="" style="endArrow=none;dashed=1;html=1;dashPattern=1 3;strokeWidth=2;rounded=0;strokeColor=#A8201A;fontColor=#143642;fillColor=#FAE5C7;" edge="1" parent="YnU4DgS81yS771I68iCx-382">
          <mxGeometry width="50" height="50" relative="1" as="geometry">
            <mxPoint y="2" as="sourcePoint" />
            <mxPoint x="490" y="2" as="targetPoint" />
          </mxGeometry>
        </mxCell>
        <mxCell id="YnU4DgS81yS771I68iCx-386" value="数据存储层" style="edgeLabel;html=1;align=center;verticalAlign=middle;resizable=0;points=[];strokeColor=#0F8B8D;fontColor=#143642;fillColor=#FAE5C7;" vertex="1" connectable="0" parent="YnU4DgS81yS771I68iCx-385">
          <mxGeometry x="0.0663" relative="1" as="geometry">
            <mxPoint x="-15" as="offset" />
          </mxGeometry>
        </mxCell>
        <mxCell id="YnU4DgS81yS771I68iCx-387" value="" style="endArrow=none;dashed=1;html=1;dashPattern=1 3;strokeWidth=2;rounded=0;strokeColor=#A8201A;fontColor=#143642;fillColor=#FAE5C7;" edge="1" parent="YnU4DgS81yS771I68iCx-382">
          <mxGeometry width="50" height="50" relative="1" as="geometry">
            <mxPoint x="490" y="120" as="sourcePoint" />
            <mxPoint y="120" as="targetPoint" />
          </mxGeometry>
        </mxCell>
        <mxCell id="YnU4DgS81yS771I68iCx-388" value="" style="endArrow=none;dashed=1;html=1;dashPattern=1 3;strokeWidth=2;rounded=0;strokeColor=#A8201A;fontColor=#143642;fillColor=#FAE5C7;" edge="1" parent="YnU4DgS81yS771I68iCx-382">
          <mxGeometry width="50" height="50" relative="1" as="geometry">
            <mxPoint x="490" y="120" as="sourcePoint" />
            <mxPoint x="490" as="targetPoint" />
          </mxGeometry>
        </mxCell>
        <mxCell id="YnU4DgS81yS771I68iCx-391" value="&lt;font style=&quot;font-size: 18px;&quot;&gt;Redis&lt;/font&gt;" style="rounded=0;whiteSpace=wrap;html=1;strokeColor=#0F8B8D;fontColor=#143642;fillColor=#FAE5C7;" vertex="1" parent="YnU4DgS81yS771I68iCx-382">
          <mxGeometry x="322" y="30" width="89.5" height="50" as="geometry" />
        </mxCell>
        <mxCell id="YnU4DgS81yS771I68iCx-392" value="&lt;font style=&quot;font-size: 18px;&quot;&gt;MySQL&lt;/font&gt;" style="rounded=0;whiteSpace=wrap;html=1;strokeColor=#0F8B8D;fontColor=#143642;fillColor=#FAE5C7;" vertex="1" parent="YnU4DgS81yS771I68iCx-382">
          <mxGeometry x="50.5" y="30" width="90" height="50" as="geometry" />
        </mxCell>
        <mxCell id="YnU4DgS81yS771I68iCx-393" value="" style="endArrow=classic;startArrow=classic;html=1;rounded=0;strokeColor=#A8201A;fontColor=#143642;fillColor=#FAE5C7;" edge="1" parent="YnU4DgS81yS771I68iCx-394">
          <mxGeometry width="50" height="50" relative="1" as="geometry">
            <mxPoint x="243" y="617" as="sourcePoint" />
            <mxPoint x="243" y="583" as="targetPoint" />
          </mxGeometry>
        </mxCell>
      </root>
    </mxGraphModel>
  </diagram>
</mxfile>
